<svg  viewbox="0 0 512 512" height="512px" width="512px" xmlns="http://www.w3.org/2000/svg">
<svg id="sadEarth" width="512px" height="512px" viewBox="0 -0.08 103.51 103.51" xmlns="http://www.w3.org/2000/svg" xmlns:xlink="http://www.w3.org/1999/xlink">
	<defs>
		<clipPath id="clip-path">
			<circle id="Ellipse_23" data-name="Ellipse 23" cx="51.203" cy="51.203" r="51.203" transform="translate(565.305 40.759)" fill="#ff0000" />
		</clipPath>
		<clipPath id="clip-path-2">
			<circle id="Ellipse_24" data-name="Ellipse 24" cx="51.203" cy="51.203" r="51.203" transform="translate(564.201 39.808)" fill="#ff0000" />
		</clipPath>
	</defs>
	<g id="Earth" transform="translate(-564.201 -39.808)">
		<circle id="Ellipse_18" data-name="Ellipse 18" cx="51.203" cy="51.203" r="51.203" transform="translate(564.201 39.808)" stroke="#000000" stroke-width="2px" />
		<circle id="Ellipse_18" data-name="Ellipse 18" cx="51.203" cy="51.203" r="51.203" transform="translate(564.201 39.808)" fill="#0087ff" />
		<g id="Group_26" data-name="Group 26">
			<g id="Group_25" data-name="Group 25" clip-path="url(#clip-path-2)" stroke="#000000" stroke-width="1px">
				<path id="Path_23" data-name="Path 23" d="M608.021,40.339s4.239,12.461,1.53,16.691-6.508,10.277-12.583,11.015-8.483-3.429-12.7.761-5.718,9.971-4.514,13.25a106.467,106.467,0,0,0,5.417,10.586s.6,7.785-.3,9.267-.3,3.8-8.427,6.527-24.075-3.522-24.075-3.522L542.44,57.03l42.434-27.972Z" fill="#00aa00" />
				<path id="Path_24" data-name="Path 24" d="M699.73,87.924s-11.356,6.654-16.043,4.849-11.374-4.314-13.316-10.117,1.656-9-3.294-12.285-10.916-3.6-13.886-1.764a106.543,106.543,0,0,0-9.284,7.431S636.4,78.19,634.768,77.6s-3.782.47-8.085-6.945-5.016-45.814-5.016-45.814l48.552,2.183,35.919,35.957Z" fill="#00aa00" />
				<path id="Path_25" data-name="Path 25" d="M606.946,94.672c-1.141-1.394-1.834-5.168-1.383-7.07s1.076-4.62,2.6-5.153,2.4,1.159,3.239-.78a8.858,8.858,0,0,0,.385-5.818c-.506-1.357-2.028-4.325-2.028-4.325a23.519,23.519,0,0,1-.47-3.967,3.535,3.535,0,0,1,1.794-3.088c1.941-1.456,6.437.64,6.437.64s6.289,14.962,5.4,20.085c-.7,4.034-5.273,12.87-9.324,13.462C611.683,98.938,608.175,96.172,606.946,94.672Z" fill="#00aa00" />
				<path id="Path_26" data-name="Path 26" d="M655.135,120.376c1.977,1.545,4.03,7.175,1.95,9.845s-4.994,6.484-10.015,7.268-7.192-1.559-10.524,1.173-4.349,6.258-3.215,8.14a59.8,59.8,0,0,0,4.933,5.992s.817,4.6.126,5.532-.094,2.277-6.74,4.362-38.325.056-38.325.056l7.965-28.716s24.531-17.272,34.142-19.052C640.454,114.047,651.11,117.232,655.135,120.376Z" fill="#00aa00" />
			</g>
		</g>
	</g>
	<style type="text/css">
		#sadEarth {
			position: absolute;
			z-index: -1;
		}
	</style>
</svg>

<svg id="gradient-display" viewbox="0 0 512 512" height="512px" width="512px" xmlns="http://www.w3.org/2000/svg">
	<defs>
		<radialGradient id="gradient-definition" cx="50%" cy="50%" r="50%" fx="50%" fy="50%">
			<stop offset="0%" stop-color="#ffffcb" />
			<stop offset="35%" stop-color="#ffffff40" />
			<stop offset="50%" stop-color="#ffffff80" />
			<stop offset="100%" stop-color="#00000000" />
		</radialGradient>
	</defs>
	<g id="groupGradient">
		<circle id="gradient-shape" cx="50%" cy="50%" r="50%" fill="url(#gradient-definition)" />
	</g>
	<script type="text/javascript">
		let gradDisplay = document.getElementById("gradient-display");
		let gradDef = document.getElementById("gradient-definition");
		let gradShape = document.getElementById("gradient-shape");
		let gradGroup = document.getElementById("groupGradient");
		let svgBox = gradDisplay.getBBox();
		let focalPosition = {
			X: 0.5,
			Y: 0.5
		};
		const mouseMoveFocal = (event) => {
			//let msX = event.clientX / svgBox.width;
			//let msY = event.clientY / svgBox.height;
			focalPosition.X = event.clientX / svgBox.width;
			focalPosition.Y = event.clientY / svgBox.height;
			//console.log(msX + ":" + msY);
			gradDef.setAttribute("fx", focalPosition.X);
			gradDef.setAttribute("fy", focalPosition.Y);
		};
		gradShape.addEventListener("mousemove", mouseMoveFocal);
		const mouseLeft = (event) => {
			gradDef.setAttribute("fx", focalPosition.X);
			gradDef.setAttribute("fy", focalPosition.Y);
		};
		gradShape.addEventListener("mouseleave", mouseLeft);
	</script>
	<style type="text/css">
		#gradient-display {
			position: absolute;
			z-index: 999;
		}
	</style>
</svg>
</svg>
